<?xml version="1.0" encoding="utf-8"?>
<svg version="1.1" xmlns:xlink="http://www.w3.org/1999/xlink" width="35px" height="35px" xmlns="http://www.w3.org/2000/svg">
  <g transform="matrix(1 0 0 1 -955 -605 )">
    <path d="M 19.886363636363637 24.0625  L 19.886363636363637 0  L 24.611363636363635 0  C 24.955 1.5640625  25.900000000000002 3.5371875  27.558522727272724 5.495  C 29.181250000000002 7.4134375  31.333750000000002 8.75  34.20454545454545 8.75  L 34.20454545454545 13.125  C 30.021250000000002 13.125  26.87840909090909 11.344375  24 9.1240625  L 24 24.062499999999996  C 24.659090909090903 24.062499999999996  24.659090909090903 24.062499999999996  24.659090909090903 24.062499999999996  C 24.659090909090903 30.103114451274298  19.317033946844692 34.99999999999999  12.727272727272728 34.99999999999999  C 6.13751150770076 34.99999999999999  0.7954545454545469 30.103114451274298  0.7954545454545469 24.062499999999996  C 0.7954545454545469 18.021885548725695  6.13751150770076 13.125  12.727272727272728 13.125  L 12.727272727272728 17.5  C 8.773415995529547 17.5  5.568181818181818 20.438131329235414  5.568181818181818 24.0625  C 5.568181818181818 27.686868670764575  8.773415995529547 30.624999999999996  12.727272727272728 30.624999999999996  C 16.681129459015903 30.624999999999996  19.886363636363637 27.686868670764575  19.886363636363637 24.0625  Z " fill-rule="nonzero" fill="#ffffff" stroke="none" transform="matrix(1 0 0 1 955 605 )" />
  </g>
</svg>