<?xml version="1.0" encoding="utf-8"?>
<svg version="1.1" xmlns:xlink="http://www.w3.org/1999/xlink" width="40px" height="40px" xmlns="http://www.w3.org/2000/svg">
  <g transform="matrix(1 0 0 1 -289 -79 )">
    <path d="M 309 79  C 320.2 79  329 87.8  329 99  C 329 110.2  320.2 119  309 119  C 297.8 119  289 110.2  289 99  C 289 87.8  297.8 79  309 79  Z " fill-rule="nonzero" fill="#ffffff" stroke="none" />
    <path d="M 309 79.5  C 319.92 79.5  328.5 88.08  328.5 99  C 328.5 109.92  319.92 118.5  309 118.5  C 298.08 118.5  289.5 109.92  289.5 99  C 289.5 88.08  298.08 79.5  309 79.5  Z " stroke-width="1" stroke="#797979" fill="none" />
  </g>
</svg>