<?xml version="1.0" encoding="utf-8"?>
<svg version="1.1" xmlns:xlink="http://www.w3.org/1999/xlink" width="50px" height="27px" xmlns="http://www.w3.org/2000/svg">
  <g transform="matrix(1 0 0 1 -510 -74 )">
    <path d="M 21.432291666666668 15.7939453125  C 21.588541666666668 15.6357421875  21.666666666666668 15.433593749999998  21.666666666666668 15.1875  L 21.666666666666668 11.8125  C 21.666666666666668 11.566406249999998  21.588541666666668 11.3642578125  21.432291666666668 11.2060546875  C 21.276041666666668 11.0478515625  21.07638888888889 10.96875  20.833333333333336 10.96875  L 15.833333333333332 10.96875  L 15.833333333333332 5.90625  C 15.833333333333332 5.660156249999999  15.755208333333334 5.4580078125  15.598958333333332 5.2998046875  C 15.442708333333332 5.1416015625  15.243055555555557 5.0625  15 5.0625  L 11.666666666666666 5.0625  C 11.423611111111112 5.0625  11.223958333333334 5.1416015625  11.067708333333332 5.2998046875  C 10.911458333333334 5.4580078125  10.833333333333334 5.660156249999999  10.833333333333334 5.90625  L 10.833333333333334 10.96875  L 5.833333333333333 10.96875  C 5.590277777777778 10.96875  5.390625000000001 11.0478515625  5.234375 11.2060546875  C 5.078125 11.3642578125  5 11.566406249999998  5 11.8125  L 5 15.1875  C 5 15.433593749999998  5.078125 15.6357421875  5.234375 15.7939453125  C 5.390625000000001 15.9521484375  5.590277777777778 16.03125  5.833333333333333 16.03125  L 10.833333333333334 16.03125  L 10.833333333333334 21.09375  C 10.833333333333334 21.339843749999996  10.911458333333334 21.5419921875  11.067708333333332 21.7001953125  C 11.223958333333334 21.8583984375  11.423611111111112 21.9375  11.666666666666666 21.9375  L 15 21.9375  C 15.243055555555557 21.9375  15.442708333333332 21.8583984375  15.598958333333332 21.7001953125  C 15.755208333333334 21.5419921875  15.833333333333332 21.339843749999996  15.833333333333332 21.09375  L 15.833333333333332 16.03125  L 20.833333333333336 16.03125  C 21.07638888888889 16.03125  21.276041666666668 15.9521484375  21.432291666666668 15.7939453125  Z M 35.690104166666664 19.26123046875  C 36.341145833333336 18.60205078125  36.666666666666664 17.806640624999996  36.666666666666664 16.875  C 36.666666666666664 15.943359374999996  36.341145833333336 15.14794921875  35.690104166666664 14.48876953125  C 35.0390625 13.82958984375  34.25347222222223 13.5  33.33333333333333 13.5  C 32.41319444444445 13.5  31.627604166666668 13.82958984375  30.9765625 14.48876953125  C 30.325520833333336 15.14794921875  30 15.943359374999996  30 16.875  C 30 17.806640624999996  30.325520833333336 18.60205078125  30.9765625 19.26123046875  C 31.627604166666668 19.92041015625  32.41319444444445 20.25  33.33333333333333 20.25  C 34.25347222222223 20.25  35.0390625 19.92041015625  35.690104166666664 19.26123046875  Z M 42.356770833333336 12.51123046875  C 43.0078125 11.85205078125  43.333333333333336 11.056640624999998  43.333333333333336 10.125  C 43.333333333333336 9.193359374999998  43.0078125 8.39794921875  42.356770833333336 7.73876953125  C 41.705729166666664 7.07958984375  40.92013888888889 6.75  40 6.75  C 39.079861111111114 6.75  38.294270833333336 7.07958984375  37.643229166666664 7.73876953125  C 36.9921875 8.39794921875  36.666666666666664 9.193359374999998  36.666666666666664 10.125  C 36.666666666666664 11.056640624999998  36.9921875 11.85205078125  37.643229166666664 12.51123046875  C 38.294270833333336 13.17041015625  39.079861111111114 13.5  40 13.5  C 40.92013888888889 13.5  41.705729166666664 13.17041015625  42.356770833333336 12.51123046875  Z M 46.09375 3.955078125  C 48.69791666666667 6.591796875  50.000000000000014 9.773437499999998  50 13.5  C 50.000000000000014 17.226562499999996  48.69791666666667 20.408203125  46.09375 23.044921875  C 43.489583333333336 25.681640625  40.34722222222223 27  36.666666666666664 27  C 33.33333333333333 27  30.39930555555556 25.874999999999996  27.864583333333332 23.625  L 22.135416666666664 23.625  C 19.600694444444446 25.874999999999996  16.666666666666664 27  13.333333333333334 27  C 9.652777777777779 27  6.510416666666667 25.681640625  3.90625 23.044921875  C 1.3020833333333335 20.408203125  0 17.226562499999996  0 13.5  C 0 9.773437499999998  1.3020833333333335 6.591796875  3.90625 3.955078125  C 6.510416666666667 1.318359375  9.652777777777779 0  13.333333333333334 0  L 36.666666666666664 0  C 40.34722222222223 0  43.489583333333336 1.318359375  46.09375 3.955078125  Z " fill-rule="nonzero" fill="#ffffff" stroke="none" transform="matrix(1 0 0 1 510 74 )" />
  </g>
</svg>