<?xml version="1.0" encoding="utf-8"?>
<svg version="1.1" xmlns:xlink="http://www.w3.org/1999/xlink" width="35px" height="30px" xmlns="http://www.w3.org/2000/svg">
  <g transform="matrix(1 0 0 1 -778 -605 )">
    <path d="M 14 8.547619047619047  L 14 20.523809523809526  L 23.333333333333332 14.571428571428573  L 14 8.547619047619047  Z M 5.267558528428094 0.42857142857142705  C 8.532144184318097 0.14285714285714235  12.609624674842063 0  17.5 0  C 19.6850613154961 0  21.795336306205872 0.03571428571428559  23.83082497212932 0.10714285714285676  C 25.866313638052773 0.17857142857142794  27.35878855444073 0.25396825396825196  28.308249721293198 0.33333333333333215  L 29.732441471571907 0.42857142857142705  C 29.74544778892605 0.42857142857142705  29.85600148643627 0.4404761904761889  30.064102564102562 0.46428571428571264  C 30.27220364176886 0.4880952380952397  30.421776291341512 0.5119047619047634  30.512820512820515 0.5357142857142871  C 30.603864734299517 0.5595238095238109  30.756688963210703 0.5952380952380965  30.97129319955407 0.6428571428571439  C 31.185897435897438 0.6904761904761914  31.371237458193978 0.7539682539682502  31.527313266443702 0.8333333333333337  C 31.683389074693423 0.9126984126984106  31.865477517651435 1.0158730158730112  32.07357859531773 1.1428571428571421  C 32.281679672984026 1.2698412698412664  32.48327759197325 1.424603174603174  32.67837235228539 1.607142857142858  C 32.87346711259755 1.7896825396825355  33.062058714232634 1.9999999999999996  33.24414715719064 2.238095238095237  C 33.322185061315494 2.3333333333333317  33.42298402081011 2.4801587301587267  33.54654403567447 2.678571428571429  C 33.67010405053884 2.8769841269841248  33.858695652173914 3.3412698412698405  34.11231884057971 4.07142857142857  C 34.365942028985515 4.801587301587297  34.53827573392791 5.603174603174601  34.62931995540691 6.476190476190476  C 34.73337049424006 7.492063492063491  34.81465997770346 8.575396825396824  34.8731884057971 9.726190476190474  C 34.93171683389075 10.876984126984127  34.96748420661464 11.777777777777775  34.98049052396878 12.428571428571427  L 34.98049052396878 13.38095238095238  L 34.98049052396878 16.61904761904762  C 34.99349684132293 18.920634920634917  34.87643998513564 21.22222222222222  34.62931995540691 23.523809523809522  C 34.53827573392791 24.3968253968254  34.37569676700112 25.186507936507933  34.14158305462654 25.892857142857146  C 33.90746934225196 26.59920634920635  33.69936826458566 27.08730158730159  33.517279821627646 27.357142857142858  L 33.24414715719064 27.761904761904763  C 33.062058714232634 28  32.87346711259755 28.21031746031746  32.67837235228539 28.392857142857142  C 32.48327759197325 28.575396825396826  32.281679672984026 28.726190476190478  32.07357859531773 28.845238095238095  C 31.865477517651435 28.964285714285715  31.683389074693423 29.063492063492067  31.527313266443702 29.142857142857142  C 31.371237458193978 29.222222222222218  31.185897435897438 29.285714285714285  30.97129319955407 29.333333333333332  C 30.756688963210703 29.38095238095238  30.60061315496098 29.416666666666664  30.503065774804906 29.44047619047619  C 30.40551839464883 29.46428571428571  30.255945745076183 29.488095238095237  30.054347826086957 29.51190476190476  C 29.852749907097735 29.53571428571429  29.74544778892605 29.54761904761905  29.732441471571907 29.54761904761905  C 26.467855815681904 29.84920634920635  22.390375325157933 30  17.5 30  C 14.807692307692308 29.968253968253972  12.469806763285025 29.916666666666668  10.486343366778149 29.845238095238095  C 8.502879970271275 29.773809523809526  7.198996655518394 29.714285714285715  6.574693422519509 29.666666666666668  L 5.618729096989966 29.571428571428573  L 4.916387959866221 29.476190476190474  C 4.448160535117057 29.3968253968254  4.093738387216648 29.317460317460313  3.8531215161649945 29.238095238095237  C 3.612504645113341 29.15873015873016  3.280843552582683 28.992063492063494  2.858138238573021 28.73809523809524  C 2.4354329245633592 28.48412698412698  2.068004459308807 28.15873015873016  1.7558528428093645 27.761904761904763  C 1.6778149386845038 27.666666666666668  1.5770159791898923 27.51984126984127  1.4534559643255296 27.32142857142857  C 1.3298959494611668 27.123015873015877  1.141304347826087 26.658730158730158  0.8876811594202899 25.92857142857143  C 0.6340579710144928 25.198412698412696  0.46172426607209216 24.3968253968254  0.37068004459308806 23.523809523809522  C 0.26662950575994054 22.507936507936506  0.18534002229654406 21.424603174603174  0.12681159420289856 20.273809523809526  C 0.06828316610925307 19.123015873015866  0.03251579338535861 18.22222222222222  0.01950947603121516 17.57142857142857  L 0.01950947603121516 16.61904761904762  L 0.01950947603121516 13.38095238095238  C 0.006503158677071719 11.079365079365077  0.12356001486436269 8.777777777777775  0.37068004459308806 6.476190476190476  C 0.46172426607209216 5.603174603174601  0.6243032329988851 4.813492063492059  0.858416945373467 4.107142857142856  C 1.0925306577480491 3.40079365079365  1.3006317354143442 2.9126984126984103  1.4827201783723523 2.6428571428571432  L 1.7558528428093645 2.238095238095237  C 1.937941285767373 1.9999999999999996  2.1265328874024525 1.7896825396825355  2.3216276477146045 1.607142857142858  C 2.5167224080267556 1.424603174603174  2.7183203270159795 1.2698412698412664  2.9264214046822743 1.1428571428571421  C 3.1345224823485696 1.0158730158730112  3.3166109253065774 0.9126984126984106  3.4726867335562988 0.8333333333333337  C 3.62876254180602 0.7539682539682502  3.8141025641025643 0.6904761904761914  4.0287068004459305 0.6428571428571439  C 4.243311036789298 0.5952380952380965  4.396135265700484 0.5595238095238109  4.487179487179487 0.5357142857142871  C 4.578223708658491 0.5119047619047634  4.727796358231141 0.4880952380952397  4.935897435897436 0.46428571428571264  C 5.143998513563731 0.4404761904761889  5.2545522110739515 0.42857142857142705  5.267558528428094 0.42857142857142705  Z " fill-rule="nonzero" fill="#ffffff" stroke="none" transform="matrix(1 0 0 1 778 605 )" />
  </g>
</svg>