<?xml version="1.0" encoding="UTF-8" standalone="no" ?>
<!DOCTYPE svg PUBLIC "-//W3C//DTD SVG 1.1//EN" "http://www.w3.org/Graphics/SVG/1.1/DTD/svg11.dtd">
<svg xmlns="http://www.w3.org/2000/svg" xmlns:xlink="http://www.w3.org/1999/xlink" version="1.1" width="64" height="64" viewBox="0 0 64 64" xml:space="preserve">
<desc>Created with Fabric.js 5.2.4</desc>
<defs>
</defs>
<rect x="0" y="0" width="100%" height="100%" fill="transparent"></rect>
<g transform="matrix(1 0 0 1 540 540)" id="58b9d15b-f9f2-4921-bf7d-a9db40149aac"  >
<rect style="stroke: none; stroke-width: 1; stroke-dasharray: none; stroke-linecap: butt; stroke-dashoffset: 0; stroke-linejoin: miter; stroke-miterlimit: 4; fill: rgb(0,0,0); fill-rule: nonzero; opacity: 1;" vector-effect="non-scaling-stroke"  x="-540" y="-540" rx="0" ry="0" width="1080" height="1080" />
</g>
<g transform="matrix(1 0 0 1 540 540)" id="b87b617a-e773-420d-b743-b19cc3e04fea"  >
</g>
<g transform="matrix(0.06 0 0 0.06 64 64)"  >
<path style="stroke: rgb(0,0,0); stroke-width: 0; stroke-dasharray: none; stroke-linecap: butt; stroke-dashoffset: 0; stroke-linejoin: miter; stroke-miterlimit: 4; fill: rgb(255,255,255); fill-rule: nonzero; opacity: 1;" vector-effect="non-scaling-stroke"  transform=" translate(-20, -20)" d="M 24.713541666666664 24.71354166666667 C 26.015625 23.41145833333333 26.666666666666664 21.84027777777778 26.666666666666664 20 C 26.666666666666664 18.159722222222218 26.015625 16.588541666666664 24.713541666666664 15.286458333333336 C 23.411458333333336 13.984375 21.840277777777782 13.333333333333336 20 13.333333333333336 C 18.15972222222222 13.333333333333336 16.588541666666668 13.984375 15.286458333333332 15.286458333333336 C 13.984375 16.588541666666664 13.333333333333332 18.159722222222218 13.333333333333332 20 C 13.333333333333332 21.84027777777778 13.984375 23.41145833333333 15.286458333333332 24.71354166666667 C 16.588541666666668 26.015625 18.15972222222222 26.66666666666667 20 26.66666666666667 C 21.840277777777782 26.66666666666667 23.411458333333336 26.015625 24.713541666666664 24.71354166666667 Z M 27.265625 12.734375 C 29.262152777777782 14.730902777777771 30.260416666666664 17.15277777777777 30.260416666666664 20 C 30.260416666666664 22.84722222222222 29.262152777777782 25.26909722222222 27.265625 27.265625 C 25.26909722222222 29.26215277777778 22.84722222222222 30.260416666666664 20 30.260416666666664 C 17.15277777777778 30.260416666666664 14.730902777777779 29.26215277777778 12.734375 27.265625 C 10.737847222222223 25.26909722222222 9.739583333333334 22.84722222222222 9.739583333333334 20 C 9.739583333333334 17.15277777777777 10.737847222222223 14.730902777777771 12.734375 12.734375 C 14.730902777777779 10.737847222222218 17.15277777777778 9.739583333333336 20 9.739583333333336 C 22.84722222222222 9.739583333333336 25.26909722222222 10.737847222222218 27.265625 12.734375 Z M 32.369791666666664 7.630208333333335 C 32.838541666666664 8.098958333333336 33.072916666666664 8.663194444444443 33.072916666666664 9.322916666666664 C 33.072916666666664 9.98263888888889 32.838541666666664 10.546875 32.369791666666664 11.015625 C 31.901041666666664 11.484375 31.336805555555557 11.71875 30.677083333333336 11.71875 C 30.01736111111111 11.71875 29.453125 11.484375 28.984375 11.015625 C 28.515625 10.546875 28.28125 9.98263888888889 28.28125 9.322916666666664 C 28.28125 8.663194444444443 28.515625 8.098958333333336 28.984375 7.630208333333335 C 29.453125 7.161458333333335 30.01736111111111 6.927083333333335 30.677083333333336 6.927083333333335 C 31.336805555555557 6.927083333333335 31.901041666666664 7.161458333333335 32.369791666666664 7.630208333333335 Z M 21.9921875 3.580729166666665 C 20.785590277777782 3.5894097222222188 20.121527777777782 3.59375 20 3.59375 C 19.87847222222222 3.59375 19.21440972222222 3.5894097222222188 18.0078125 3.580729166666665 C 16.80121527777778 3.572048611111107 15.885416666666668 3.572048611111107 15.260416666666668 3.580729166666665 C 14.635416666666668 3.5894097222222188 13.797743055555555 3.6154513888888884 12.747395833333332 3.658854166666665 C 11.697048611111114 3.702256944444442 10.802951388888891 3.7890625 10.065104166666668 3.919270833333335 C 9.327256944444445 4.049479166666665 8.706597222222223 4.210069444444442 8.203125 4.401041666666665 C 7.3350694444444455 4.748263888888888 6.571180555555555 5.251736111111107 5.911458333333334 5.911458333333335 C 5.251736111111112 6.571180555555554 4.748263888888889 7.335069444444442 4.401041666666667 8.203125 C 4.210069444444445 8.706597222222218 4.049479166666667 9.327256944444443 3.919270833333333 10.065104166666664 C 3.7890625 10.80295138888889 3.7022569444444446 11.697048611111107 3.658854166666667 12.747395833333336 C 3.615451388888889 13.797743055555554 3.5894097222222228 14.635416666666664 3.580729166666667 15.260416666666664 C 3.5720486111111116 15.885416666666664 3.5720486111111116 16.80121527777777 3.580729166666667 18.0078125 C 3.5894097222222228 19.214409722222218 3.59375 19.878472222222218 3.59375 20 C 3.59375 20.12152777777778 3.5894097222222228 20.78559027777778 3.580729166666667 21.9921875 C 3.5720486111111116 23.19878472222222 3.5720486111111116 24.11458333333333 3.580729166666667 24.73958333333333 C 3.5894097222222228 25.36458333333333 3.615451388888889 26.202256944444436 3.658854166666667 27.25260416666667 C 3.7022569444444446 28.302951388888886 3.7890625 29.197048611111107 3.919270833333333 29.93489583333333 C 4.049479166666667 30.672743055555554 4.210069444444445 31.29340277777777 4.401041666666667 31.796875 C 4.748263888888889 32.66493055555556 5.251736111111112 33.42881944444444 5.911458333333334 34.088541666666664 C 6.571180555555555 34.748263888888886 7.3350694444444455 35.251736111111114 8.203125 35.598958333333336 C 8.706597222222223 35.78993055555556 9.327256944444445 35.950520833333336 10.065104166666668 36.080729166666664 C 10.802951388888891 36.2109375 11.697048611111114 36.29774305555556 12.747395833333332 36.341145833333336 C 13.797743055555555 36.384548611111114 14.635416666666668 36.41059027777778 15.260416666666668 36.419270833333336 C 15.885416666666668 36.427951388888886 16.80121527777778 36.427951388888886 18.0078125 36.419270833333336 C 19.21440972222222 36.41059027777778 19.87847222222222 36.40625 20 36.40625 C 20.121527777777782 36.40625 20.785590277777782 36.41059027777778 21.9921875 36.419270833333336 C 23.19878472222222 36.427951388888886 24.114583333333336 36.427951388888886 24.739583333333336 36.419270833333336 C 25.364583333333336 36.41059027777778 26.202256944444446 36.384548611111114 27.252604166666664 36.341145833333336 C 28.302951388888893 36.29774305555556 29.19704861111111 36.2109375 29.934895833333336 36.080729166666664 C 30.672743055555557 35.950520833333336 31.293402777777782 35.78993055555556 31.796875 35.598958333333336 C 32.66493055555556 35.251736111111114 33.42881944444444 34.748263888888886 34.088541666666664 34.088541666666664 C 34.74826388888889 33.42881944444444 35.251736111111114 32.66493055555556 35.598958333333336 31.796875 C 35.78993055555556 31.29340277777777 35.950520833333336 30.672743055555554 36.080729166666664 29.93489583333333 C 36.2109375 29.197048611111107 36.29774305555556 28.302951388888886 36.341145833333336 27.25260416666667 C 36.384548611111114 26.202256944444436 36.41059027777778 25.36458333333333 36.419270833333336 24.73958333333333 C 36.42795138888889 24.11458333333333 36.42795138888889 23.19878472222222 36.419270833333336 21.9921875 C 36.41059027777778 20.78559027777778 36.40625 20.12152777777778 36.40625 20 C 36.40625 19.878472222222218 36.41059027777778 19.214409722222218 36.419270833333336 18.0078125 C 36.42795138888889 16.80121527777777 36.42795138888889 15.885416666666664 36.419270833333336 15.260416666666664 C 36.41059027777778 14.635416666666664 36.384548611111114 13.797743055555554 36.341145833333336 12.747395833333336 C 36.29774305555556 11.697048611111107 36.2109375 10.80295138888889 36.080729166666664 10.065104166666664 C 35.950520833333336 9.327256944444443 35.78993055555556 8.706597222222218 35.598958333333336 8.203125 C 35.251736111111114 7.335069444444442 34.74826388888889 6.571180555555554 34.088541666666664 5.911458333333335 C 33.42881944444444 5.251736111111107 32.66493055555556 4.748263888888888 31.796875 4.401041666666665 C 31.293402777777782 4.210069444444442 30.672743055555557 4.049479166666665 29.934895833333336 3.919270833333335 C 29.19704861111111 3.7890625 28.302951388888893 3.702256944444442 27.252604166666664 3.658854166666665 C 26.202256944444446 3.6154513888888884 25.364583333333336 3.5894097222222188 24.739583333333336 3.580729166666665 C 24.114583333333336 3.572048611111107 23.19878472222222 3.572048611111107 21.9921875 3.580729166666665 Z M 39.869791666666664 11.744791666666664 C 39.95659722222222 13.272569444444443 40 16.024305555555554 40 20 C 40 23.975694444444446 39.95659722222222 26.727430555555554 39.869791666666664 28.25520833333333 C 39.69618055555556 31.866319444444446 38.619791666666664 34.661458333333336 36.640625 36.640625 C 34.661458333333336 38.619791666666664 31.866319444444446 39.69618055555556 28.255208333333336 39.869791666666664 C 26.727430555555557 39.95659722222222 23.975694444444446 40 20 40 C 16.024305555555557 40 13.272569444444445 39.95659722222222 11.744791666666668 39.869791666666664 C 8.133680555555557 39.69618055555556 5.338541666666668 38.619791666666664 3.359375 36.640625 C 1.3802083333333335 34.661458333333336 0.3038194444444445 31.866319444444446 0.13020833333333334 28.25520833333333 C 0.04340277777777777 26.727430555555554 0 23.975694444444446 0 20 C 0 16.024305555555554 0.04340277777777777 13.272569444444443 0.13020833333333334 11.744791666666664 C 0.3038194444444445 8.133680555555554 1.3802083333333335 5.338541666666665 3.359375 3.359375 C 5.338541666666668 1.3802083333333348 8.133680555555557 0.303819444444442 11.744791666666668 0.1302083333333348 C 13.272569444444445 0.04340277777777235 16.024305555555557 0 20 0 C 23.975694444444446 0 26.727430555555557 0.04340277777777235 28.255208333333336 0.1302083333333348 C 31.866319444444446 0.303819444444442 34.661458333333336 1.3802083333333348 36.640625 3.359375 C 38.619791666666664 5.338541666666665 39.69618055555556 8.133680555555554 39.869791666666664 11.744791666666664 Z" stroke-linecap="round" />
</g>
<g transform="matrix(1.42 0 0 1.42 32 32)" id="ce373aa3-eeb0-4d1f-93b3-4759ad9e7e74"  >
<path style="stroke: rgb(0,0,0); stroke-width: 0; stroke-dasharray: none; stroke-linecap: butt; stroke-dashoffset: 0; stroke-linejoin: miter; stroke-miterlimit: 4; fill: rgb(255,255,255); fill-rule: nonzero; opacity: 1;" vector-effect="non-scaling-stroke"  transform=" translate(-17.5, -15)" d="M 14 8.547619047619047 L 14 20.523809523809526 L 23.333333333333332 14.571428571428573 L 14 8.547619047619047 Z M 5.267558528428094 0.42857142857142705 C 8.532144184318097 0.14285714285714235 12.609624674842063 0 17.5 0 C 19.6850613154961 0 21.795336306205872 0.03571428571428559 23.83082497212932 0.10714285714285676 C 25.866313638052773 0.17857142857142794 27.35878855444073 0.25396825396825196 28.308249721293198 0.33333333333333215 L 29.732441471571907 0.42857142857142705 C 29.74544778892605 0.42857142857142705 29.85600148643627 0.4404761904761889 30.064102564102562 0.46428571428571264 C 30.27220364176886 0.4880952380952397 30.421776291341512 0.5119047619047634 30.512820512820515 0.5357142857142871 C 30.603864734299517 0.5595238095238109 30.756688963210703 0.5952380952380965 30.97129319955407 0.6428571428571439 C 31.185897435897438 0.6904761904761914 31.371237458193978 0.7539682539682502 31.527313266443702 0.8333333333333337 C 31.683389074693423 0.9126984126984106 31.865477517651435 1.0158730158730112 32.07357859531773 1.1428571428571421 C 32.281679672984026 1.2698412698412664 32.48327759197325 1.424603174603174 32.67837235228539 1.607142857142858 C 32.87346711259755 1.7896825396825355 33.062058714232634 1.9999999999999996 33.24414715719064 2.238095238095237 C 33.322185061315494 2.3333333333333317 33.42298402081011 2.4801587301587267 33.54654403567447 2.678571428571429 C 33.67010405053884 2.8769841269841248 33.858695652173914 3.3412698412698405 34.11231884057971 4.07142857142857 C 34.365942028985515 4.801587301587297 34.53827573392791 5.603174603174601 34.62931995540691 6.476190476190476 C 34.73337049424006 7.492063492063491 34.81465997770346 8.575396825396824 34.8731884057971 9.726190476190474 C 34.93171683389075 10.876984126984127 34.96748420661464 11.777777777777775 34.98049052396878 12.428571428571427 L 34.98049052396878 13.38095238095238 L 34.98049052396878 16.61904761904762 C 34.99349684132293 18.920634920634917 34.87643998513564 21.22222222222222 34.62931995540691 23.523809523809522 C 34.53827573392791 24.3968253968254 34.37569676700112 25.186507936507933 34.14158305462654 25.892857142857146 C 33.90746934225196 26.59920634920635 33.69936826458566 27.08730158730159 33.517279821627646 27.357142857142858 L 33.24414715719064 27.761904761904763 C 33.062058714232634 28 32.87346711259755 28.21031746031746 32.67837235228539 28.392857142857142 C 32.48327759197325 28.575396825396826 32.281679672984026 28.726190476190478 32.07357859531773 28.845238095238095 C 31.865477517651435 28.964285714285715 31.683389074693423 29.063492063492067 31.527313266443702 29.142857142857142 C 31.371237458193978 29.222222222222218 31.185897435897438 29.285714285714285 30.97129319955407 29.333333333333332 C 30.756688963210703 29.38095238095238 30.60061315496098 29.416666666666664 30.503065774804906 29.44047619047619 C 30.40551839464883 29.46428571428571 30.255945745076183 29.488095238095237 30.054347826086957 29.51190476190476 C 29.852749907097735 29.53571428571429 29.74544778892605 29.54761904761905 29.732441471571907 29.54761904761905 C 26.467855815681904 29.84920634920635 22.390375325157933 30 17.5 30 C 14.807692307692308 29.968253968253972 12.469806763285025 29.916666666666668 10.486343366778149 29.845238095238095 C 8.502879970271275 29.773809523809526 7.198996655518394 29.714285714285715 6.574693422519509 29.666666666666668 L 5.618729096989966 29.571428571428573 L 4.916387959866221 29.476190476190474 C 4.448160535117057 29.3968253968254 4.093738387216648 29.317460317460313 3.8531215161649945 29.238095238095237 C 3.612504645113341 29.15873015873016 3.280843552582683 28.992063492063494 2.858138238573021 28.73809523809524 C 2.4354329245633592 28.48412698412698 2.068004459308807 28.15873015873016 1.7558528428093645 27.761904761904763 C 1.6778149386845038 27.666666666666668 1.5770159791898923 27.51984126984127 1.4534559643255296 27.32142857142857 C 1.3298959494611668 27.123015873015877 1.141304347826087 26.658730158730158 0.8876811594202899 25.92857142857143 C 0.6340579710144928 25.198412698412696 0.46172426607209216 24.3968253968254 0.37068004459308806 23.523809523809522 C 0.26662950575994054 22.507936507936506 0.18534002229654406 21.424603174603174 0.12681159420289856 20.273809523809526 C 0.06828316610925307 19.123015873015866 0.03251579338535861 18.22222222222222 0.01950947603121516 17.57142857142857 L 0.01950947603121516 16.61904761904762 L 0.01950947603121516 13.38095238095238 C 0.006503158677071719 11.079365079365077 0.12356001486436269 8.777777777777775 0.37068004459308806 6.476190476190476 C 0.46172426607209216 5.603174603174601 0.6243032329988851 4.813492063492059 0.858416945373467 4.107142857142856 C 1.0925306577480491 3.40079365079365 1.3006317354143442 2.9126984126984103 1.4827201783723523 2.6428571428571432 L 1.7558528428093645 2.238095238095237 C 1.937941285767373 1.9999999999999996 2.1265328874024525 1.7896825396825355 2.3216276477146045 1.607142857142858 C 2.5167224080267556 1.424603174603174 2.7183203270159795 1.2698412698412664 2.9264214046822743 1.1428571428571421 C 3.1345224823485696 1.0158730158730112 3.3166109253065774 0.9126984126984106 3.4726867335562988 0.8333333333333337 C 3.62876254180602 0.7539682539682502 3.8141025641025643 0.6904761904761914 4.0287068004459305 0.6428571428571439 C 4.243311036789298 0.5952380952380965 4.396135265700484 0.5595238095238109 4.487179487179487 0.5357142857142871 C 4.578223708658491 0.5119047619047634 4.727796358231141 0.4880952380952397 4.935897435897436 0.46428571428571264 C 5.143998513563731 0.4404761904761889 5.2545522110739515 0.42857142857142705 5.267558528428094 0.42857142857142705 Z" stroke-linecap="round" />
</g>
</svg>