<?xml version="1.0" encoding="utf-8"?>
<svg version="1.1" xmlns:xlink="http://www.w3.org/1999/xlink" width="18px" height="18px" xmlns="http://www.w3.org/2000/svg">
  <g transform="matrix(1 0 0 1 -300 -90 )">
    <path d="M 16.5 18  L 1.5 18  C 1.5 18  0 18  0 16.5  C 0 15  1.5 10.5  9 10.5  C 16.5 10.5  18 15  18 16.5  C 18 18  16.5 18  16.5 18  Z M 4.5 4.500000000000001  C 4.5 6.985281374238572  6.514718625761429 9  9 9  C 11.48528137423857 9  13.5 6.985281374238572  13.5 4.500000000000001  C 13.5 2.0147186257614296  11.48528137423857 0  9 0  C 6.514718625761429 0  4.5 2.0147186257614296  4.5 4.500000000000001  Z " fill-rule="nonzero" fill="#000000" stroke="none" transform="matrix(1 0 0 1 300 90 )" />
  </g>
</svg>